<svg width="25" height="25" viewBox="0 0 25 25" fill="none" xmlns="http://www.w3.org/2000/svg">
<g id="basil:viber-outline">
<path id="Vector" d="M8.6504 6.7244C8.46454 6.69735 8.27503 6.73476 8.1134 6.8304H8.0994C7.7244 7.0504 7.3864 7.3274 7.0984 7.6534C6.8584 7.9304 6.7284 8.2104 6.6944 8.4804C6.6744 8.6404 6.6884 8.8024 6.7354 8.9554L6.7534 8.9654C7.0234 9.7584 7.3754 10.5214 7.8054 11.2394C8.35985 12.2479 9.04215 13.1806 9.8354 14.0144L9.8594 14.0484L9.8974 14.0764L9.9204 14.1034L9.9484 14.1274C10.7851 14.923 11.72 15.6086 12.7304 16.1674C13.8854 16.7964 14.5864 17.0934 15.0074 17.2174V17.2234C15.1304 17.2614 15.2424 17.2784 15.3554 17.2784C15.7139 17.2519 16.0533 17.1062 16.3194 16.8644C16.6444 16.5764 16.9194 16.2374 17.1334 15.8604V15.8534C17.3344 15.4734 17.2664 15.1154 16.9764 14.8724C16.3939 14.3634 15.764 13.9114 15.0954 13.5224C14.6474 13.2794 14.1924 13.4264 14.0084 13.6724L13.6154 14.1684C13.4134 14.4144 13.0474 14.3804 13.0474 14.3804L13.0374 14.3864C10.3064 13.6894 9.5774 10.9244 9.5774 10.9244C9.5774 10.9244 9.5434 10.5484 9.7964 10.3564L10.2884 9.9604C10.5244 9.7684 10.6884 9.3144 10.4354 8.8664C10.049 8.19716 9.59784 7.56748 9.0884 6.9864C8.97728 6.84965 8.82146 6.75651 8.6484 6.7234L8.6504 6.7244ZM13.2654 5.5224C13.1328 5.5224 13.0056 5.57508 12.9118 5.66885C12.8181 5.76261 12.7654 5.88979 12.7654 6.0224C12.7654 6.15501 12.8181 6.28219 12.9118 6.37595C13.0056 6.46972 13.1328 6.5224 13.2654 6.5224C14.5294 6.5224 15.5794 6.9354 16.4104 7.7274C16.8374 8.1604 17.1704 8.6734 17.3884 9.2354C17.6074 9.7984 17.7074 10.3994 17.6814 11.0014C17.6758 11.134 17.7232 11.2634 17.813 11.3611C17.9028 11.4588 18.0278 11.5168 18.1604 11.5224C18.293 11.528 18.4224 11.4806 18.5201 11.3908C18.6178 11.301 18.6758 11.176 18.6814 11.0434C18.7124 10.3029 18.5895 9.56399 18.3204 8.8734C18.0501 8.17954 17.6403 7.54852 17.1164 7.0194L17.1064 7.0094C16.0754 6.0244 14.7714 5.5224 13.2654 5.5224Z" fill="#018343"/>
<path id="Vector_2" d="M13.2324 7.16647C13.0998 7.16647 12.9726 7.21914 12.8789 7.31291C12.7851 7.40668 12.7324 7.53386 12.7324 7.66647C12.7324 7.79907 12.7851 7.92625 12.8789 8.02002C12.9726 8.11379 13.0998 8.16647 13.2324 8.16647H13.2494C14.1614 8.23147 14.8254 8.53547 15.2904 9.03447C15.7674 9.54847 16.0144 10.1875 15.9954 10.9775C15.9924 11.1101 16.0421 11.2385 16.1337 11.3344C16.2253 11.4303 16.3513 11.4859 16.4839 11.489C16.6165 11.492 16.7449 11.4423 16.8408 11.3507C16.9368 11.259 16.9924 11.1331 16.9954 11.0005C17.0194 9.96347 16.6854 9.06847 16.0234 8.35447V8.35247C15.3464 7.62647 14.4174 7.24247 13.2994 7.16747L13.2824 7.16547L13.2324 7.16647Z" fill="#018343"/>
<path id="Vector_3" d="M13.21 8.84172C13.143 8.83581 13.0756 8.84345 13.0117 8.86418C12.9478 8.88491 12.8888 8.9183 12.8381 8.96236C12.7874 9.00641 12.7461 9.06024 12.7166 9.12062C12.6872 9.18099 12.6702 9.24668 12.6667 9.31377C12.6632 9.38085 12.6733 9.44795 12.6963 9.51106C12.7193 9.57417 12.7548 9.63199 12.8006 9.68108C12.8465 9.73017 12.9017 9.76952 12.9631 9.79678C13.0245 9.82403 13.0908 9.83864 13.158 9.83972C13.576 9.86172 13.843 9.98772 14.011 10.1567C14.18 10.3267 14.306 10.5997 14.329 11.0267C14.3302 11.0938 14.345 11.16 14.3723 11.2213C14.3997 11.2825 14.4391 11.3377 14.4882 11.3834C14.5373 11.4291 14.5952 11.4645 14.6582 11.4874C14.7213 11.5103 14.7884 11.5203 14.8554 11.5167C14.9224 11.5132 14.988 11.4961 15.0483 11.4667C15.1086 11.4372 15.1624 11.3959 15.2064 11.3453C15.2504 11.2946 15.2837 11.2356 15.3045 11.1718C15.3252 11.1079 15.3328 11.0406 15.327 10.9737C15.295 10.3737 15.107 9.84372 14.722 9.45372C14.335 9.06372 13.808 8.87372 13.21 8.84172Z" fill="#018343"/>
<path id="Vector_4" fill-rule="evenodd" clip-rule="evenodd" d="M7.75236 2.90646C10.9344 2.19516 14.2343 2.19516 17.4164 2.90646L17.7554 2.98146C18.6856 3.18941 19.5399 3.65119 20.2234 4.31548C20.907 4.97978 21.3929 5.82058 21.6274 6.74446C22.4351 9.92735 22.4351 13.2616 21.6274 16.4445C21.3929 17.3683 20.907 18.2091 20.2234 18.8734C19.5399 19.5377 18.6856 19.9995 17.7554 20.2075L17.4154 20.2825C15.4224 20.7281 13.3773 20.8961 11.3384 20.7815L8.68536 23.1555C8.58534 23.245 8.46311 23.3061 8.33144 23.3323C8.19977 23.3585 8.06349 23.3488 7.9368 23.3044C7.81012 23.26 7.69769 23.1823 7.61124 23.0796C7.5248 22.9769 7.46751 22.8529 7.44536 22.7205L7.00636 20.0985C6.16454 19.8365 5.40397 19.3631 4.79733 18.7233C4.19069 18.0836 3.75825 17.299 3.54136 16.4445C2.73361 13.2616 2.73361 9.92734 3.54136 6.74446C3.77578 5.82058 4.26175 4.97978 4.94529 4.31548C5.62883 3.65119 6.48316 3.18941 7.41336 2.98146L7.75236 2.90646ZM17.0894 4.36946C14.1226 3.70626 11.0461 3.70626 8.07936 4.36946L7.73936 4.44546C7.08008 4.59311 6.47462 4.92061 5.99023 5.39159C5.50584 5.86256 5.16147 6.45858 4.99536 7.11346C4.24907 10.0542 4.24907 13.1347 4.99536 16.0755C5.16155 16.7305 5.50607 17.3266 5.99065 17.7976C6.47523 18.2685 7.08089 18.596 7.74036 18.7435L7.83036 18.7635C7.97595 18.796 8.10852 18.8713 8.21113 18.9796C8.31373 19.0879 8.38171 19.2243 8.40636 19.3715L8.70036 21.1295L10.5724 19.4545C10.6471 19.3874 10.7346 19.336 10.8296 19.3033C10.9246 19.2707 11.0252 19.2575 11.1254 19.2645C13.1244 19.4063 15.1335 19.2564 17.0894 18.8195L17.4284 18.7435C18.0878 18.596 18.6935 18.2685 19.1781 17.7976C19.6626 17.3266 20.0072 16.7305 20.1734 16.0755C20.9194 13.1355 20.9194 10.0545 20.1734 7.11346C20.0072 6.45846 19.6626 5.86235 19.1781 5.39136C18.6935 4.92038 18.0878 4.59295 17.4284 4.44546L17.0894 4.36946Z" fill="#018343"/>
</g>
</svg>
