<svg width="25" height="25" viewBox="0 0 25 25" fill="none" xmlns="http://www.w3.org/2000/svg">
<g id="vuesax/linear/facebook">
<g id="facebook">
<path id="Vector" d="M14.6855 9.82289V12.7229H17.2855C17.4855 12.7229 17.5855 12.9229 17.5855 13.1229L17.1855 15.0229C17.1855 15.1229 16.9855 15.2229 16.8855 15.2229H14.6855V22.5229H11.6855V15.3229H9.98555C9.78555 15.3229 9.68555 15.2229 9.68555 15.0229V13.1229C9.68555 12.9229 9.78555 12.8229 9.98555 12.8229H11.6855V9.52289C11.6855 7.82289 12.9855 6.52289 14.6855 6.52289H17.3855C17.5855 6.52289 17.6855 6.62289 17.6855 6.82289V9.22289C17.6855 9.42289 17.5855 9.52289 17.3855 9.52289H14.9855C14.7855 9.52289 14.6855 9.62289 14.6855 9.82289Z" stroke="#018343" stroke-width="1.8" stroke-miterlimit="10" stroke-linecap="round"/>
<path id="Vector_2" d="M15.6855 22.5229H9.68555C4.68555 22.5229 2.68555 20.5229 2.68555 15.5229V9.52289C2.68555 4.52289 4.68555 2.52289 9.68555 2.52289H15.6855C20.6855 2.52289 22.6855 4.52289 22.6855 9.52289V15.5229C22.6855 20.5229 20.6855 22.5229 15.6855 22.5229Z" stroke="#018343" stroke-width="1.8" stroke-linecap="round" stroke-linejoin="round"/>
</g>
</g>
</svg>
