<svg width="25" height="25" viewBox="0 0 25 25" fill="none" xmlns="http://www.w3.org/2000/svg">
<g id="ic:baseline-whatsapp">
<path id="Vector" d="M19.7324 5.43264C18.8156 4.50657 17.7236 3.77231 16.5201 3.27269C15.3165 2.77308 14.0255 2.5181 12.7224 2.52264C7.26242 2.52264 2.81242 6.97264 2.81242 12.4326C2.81242 14.1826 3.27242 15.8826 4.13242 17.3826L2.73242 22.5226L7.98242 21.1426C9.43242 21.9326 11.0624 22.3526 12.7224 22.3526C18.1824 22.3526 22.6324 17.9026 22.6324 12.4426C22.6324 9.79264 21.6024 7.30264 19.7324 5.43264ZM12.7224 20.6726C11.2424 20.6726 9.79242 20.2726 8.52242 19.5226L8.22242 19.3426L5.10242 20.1626L5.93242 17.1226L5.73242 16.8126C4.91017 15.4996 4.47356 13.9819 4.47242 12.4326C4.47242 7.89264 8.17242 4.19264 12.7124 4.19264C14.9124 4.19264 16.9824 5.05264 18.5324 6.61264C19.2999 7.37661 19.9081 8.28531 20.3218 9.28607C20.7355 10.2868 20.9465 11.3598 20.9424 12.4426C20.9624 16.9826 17.2624 20.6726 12.7224 20.6726ZM17.2424 14.5126C16.9924 14.3926 15.7724 13.7926 15.5524 13.7026C15.3224 13.6226 15.1624 13.5826 14.9924 13.8226C14.8224 14.0726 14.3524 14.6326 14.2124 14.7926C14.0724 14.9626 13.9224 14.9826 13.6724 14.8526C13.4224 14.7326 12.6224 14.4626 11.6824 13.6226C10.9424 12.9626 10.4524 12.1526 10.3024 11.9026C10.1624 11.6526 10.2824 11.5226 10.4124 11.3926C10.5224 11.2826 10.6624 11.1026 10.7824 10.9626C10.9024 10.8226 10.9524 10.7126 11.0324 10.5526C11.1124 10.3826 11.0724 10.2426 11.0124 10.1226C10.9524 10.0026 10.4524 8.78264 10.2524 8.28264C10.0524 7.80264 9.84242 7.86264 9.69242 7.85264H9.21242C9.04242 7.85264 8.78242 7.91264 8.55242 8.16264C8.33242 8.41264 7.69242 9.01264 7.69242 10.2326C7.69242 11.4526 8.58242 12.6326 8.70242 12.7926C8.82242 12.9626 10.4524 15.4626 12.9324 16.5326C13.5224 16.7926 13.9824 16.9426 14.3424 17.0526C14.9324 17.2426 15.4724 17.2126 15.9024 17.1526C16.3824 17.0826 17.3724 16.5526 17.5724 15.9726C17.7824 15.3926 17.7824 14.9026 17.7124 14.7926C17.6424 14.6826 17.4924 14.6326 17.2424 14.5126Z" fill="#018343"/>
</g>
</svg>
