<svg width="25" height="25" viewBox="0 0 25 25" fill="none" xmlns="http://www.w3.org/2000/svg">
<g id="vuesax/linear/instagram">
<g id="instagram">
<path id="Vector" d="M9.68555 22.5229H15.6855C20.6855 22.5229 22.6855 20.5229 22.6855 15.5229V9.52289C22.6855 4.52289 20.6855 2.52289 15.6855 2.52289H9.68555C4.68555 2.52289 2.68555 4.52289 2.68555 9.52289V15.5229C2.68555 20.5229 4.68555 22.5229 9.68555 22.5229Z" stroke="#018343" stroke-width="1.8" stroke-linecap="round" stroke-linejoin="round"/>
<path id="Vector_2" d="M12.6855 16.0229C14.6185 16.0229 16.1855 14.4559 16.1855 12.5229C16.1855 10.5899 14.6185 9.02289 12.6855 9.02289C10.7526 9.02289 9.18555 10.5899 9.18555 12.5229C9.18555 14.4559 10.7526 16.0229 12.6855 16.0229Z" stroke="#018343" stroke-width="1.8" stroke-linecap="round" stroke-linejoin="round"/>
<path id="Vector_3" d="M18.3217 7.52289H18.3332" stroke="#018343" stroke-width="2.4" stroke-linecap="round" stroke-linejoin="round"/>
</g>
</g>
</svg>
