<svg width="25" height="25" viewBox="0 0 25 25" fill="none" xmlns="http://www.w3.org/2000/svg">
<g id="material-symbols-light:mail-outline">
<path id="Vector" d="M5.30055 19.5225C4.84055 19.5225 4.45655 19.3685 4.14855 19.0605C3.83988 18.7518 3.68555 18.3675 3.68555 17.9075V7.13746C3.68555 6.67746 3.83988 6.29346 4.14855 5.98546C4.45655 5.67679 4.84055 5.52246 5.30055 5.52246H20.0705C20.5305 5.52246 20.9145 5.67679 21.2225 5.98546C21.5312 6.29346 21.6855 6.67746 21.6855 7.13746V17.9075C21.6855 18.3675 21.5315 18.7515 21.2235 19.0595C20.9149 19.3681 20.5305 19.5225 20.0705 19.5225H5.30055ZM12.6855 12.6375L4.68555 7.40746V17.9075C4.68555 18.0868 4.74321 18.2341 4.85855 18.3495C4.97388 18.4648 5.12121 18.5225 5.30055 18.5225H20.0705C20.2499 18.5225 20.3972 18.4648 20.5125 18.3495C20.6279 18.2341 20.6855 18.0868 20.6855 17.9075V7.40746L12.6855 12.6375ZM12.6855 11.5225L20.3775 6.52246H4.99355L12.6855 11.5225ZM4.68555 7.40746V6.52246V17.9075C4.68555 18.0868 4.74321 18.2341 4.85855 18.3495C4.97388 18.4648 5.12121 18.5225 5.30055 18.5225H4.68555V7.40746Z" fill="#018343"/>
</g>
</svg>
