<svg width="25" height="25" viewBox="0 0 25 25" fill="none" xmlns="http://www.w3.org/2000/svg">
<path d="M12.6855 12.0226C12.0225 12.0226 11.3866 11.7592 10.9178 11.2903C10.4489 10.8215 10.1855 10.1856 10.1855 9.52258C10.1855 8.85954 10.4489 8.22366 10.9178 7.75482C11.3866 7.28597 12.0225 7.02258 12.6855 7.02258C13.3486 7.02258 13.9845 7.28597 14.4533 7.75482C14.9222 8.22366 15.1855 8.85954 15.1855 9.52258C15.1855 9.85089 15.1209 10.176 14.9952 10.4793C14.8696 10.7826 14.6855 11.0582 14.4533 11.2903C14.2212 11.5225 13.9456 11.7066 13.6423 11.8323C13.3389 11.9579 13.0139 12.0226 12.6855 12.0226ZM12.6855 2.52258C10.829 2.52258 9.04855 3.26008 7.7358 4.57284C6.42304 5.88559 5.68555 7.66607 5.68555 9.52258C5.68555 14.7726 12.6855 22.5226 12.6855 22.5226C12.6855 22.5226 19.6855 14.7726 19.6855 9.52258C19.6855 7.66607 18.948 5.88559 17.6353 4.57284C16.3225 3.26008 14.5421 2.52258 12.6855 2.52258Z" fill="#018343"/>
</svg>
