<svg width="25" height="25" viewBox="0 0 25 25" fill="none" xmlns="http://www.w3.org/2000/svg">
<g id="ph:phone-light">
<path id="Vector" d="M21.4596 15.5508L17.0309 13.5661C16.8302 13.4802 16.6113 13.4456 16.3939 13.4656C16.1765 13.4855 15.9675 13.5594 15.7859 13.6805C15.7674 13.6923 15.7499 13.7055 15.7334 13.7199L13.4187 15.6886C13.3947 15.7017 13.3679 15.7091 13.3406 15.71C13.3133 15.711 13.2861 15.7056 13.2612 15.6943C11.7734 14.9761 10.2321 13.4443 9.51118 11.9771C9.49918 11.9526 9.49294 11.9256 9.49294 11.8983C9.49294 11.871 9.49918 11.8441 9.51118 11.8196L11.4865 9.47582C11.5007 9.45848 11.5138 9.44032 11.5259 9.42145C11.6453 9.23911 11.7174 9.0299 11.7358 8.8127C11.7541 8.5955 11.718 8.37716 11.6309 8.17739L9.66025 3.75614C9.54834 3.49514 9.3548 3.27749 9.10868 3.13583C8.86256 2.99418 8.57713 2.93617 8.29525 2.97051C7.07014 3.13157 5.9456 3.7332 5.13177 4.66298C4.31793 5.59276 3.87049 6.78706 3.87306 8.0227C3.87306 15.3633 9.84493 21.3352 17.1856 21.3352C18.4211 21.3376 19.6153 20.8901 20.5451 20.0763C21.4748 19.2625 22.0765 18.138 22.2377 16.913C22.272 16.6324 22.2148 16.3483 22.0746 16.1029C21.9344 15.8574 21.7187 15.6638 21.4596 15.5508ZM17.1856 20.2102C10.4656 20.2102 4.99806 14.7427 4.99806 8.0227C4.99492 7.06076 5.34212 6.13058 5.97479 5.40596C6.60745 4.68134 7.4823 4.21184 8.43587 4.0852H8.45743C8.49521 4.0859 8.5319 4.09801 8.56268 4.11992C8.59346 4.14184 8.6169 4.17254 8.62993 4.20801L10.6081 8.62457C10.6193 8.64913 10.6252 8.67583 10.6252 8.70285C10.6252 8.72988 10.6193 8.75658 10.6081 8.78113L8.629 11.1305C8.61423 11.1473 8.60076 11.1651 8.58868 11.1839C8.46484 11.373 8.39192 11.5908 8.37697 11.8163C8.36203 12.0418 8.40557 12.2674 8.50337 12.4711C9.33493 14.1736 11.0506 15.8761 12.7718 16.7077C12.9767 16.805 13.2034 16.8475 13.4296 16.831C13.6559 16.8146 13.874 16.7398 14.0627 16.6139C14.0806 16.6018 14.0984 16.5886 14.1152 16.5746L16.429 14.6058C16.4518 14.5935 16.4771 14.5863 16.503 14.5847C16.5289 14.5831 16.5548 14.5871 16.579 14.5964L21.0087 16.5811C21.0449 16.5965 21.0753 16.6229 21.0956 16.6566C21.116 16.6902 21.1253 16.7294 21.1221 16.7686C20.9961 17.7226 20.5271 18.5981 19.8026 19.2315C19.0782 19.8649 18.1478 20.2128 17.1856 20.2102Z" fill="#018343"/>
</g>
</svg>
