<svg width="25" height="25" viewBox="0 0 25 25" fill="none" xmlns="http://www.w3.org/2000/svg">
<g id="ri:messenger-line">
<path id="Vector" d="M8.44955 19.7476C9.03955 19.4876 9.69955 19.4386 10.3175 19.6086C11.0875 19.8186 11.8825 19.9246 12.6855 19.9226C17.2705 19.9226 20.6855 16.6366 20.6855 12.2226C20.6855 7.80958 17.2705 4.52258 12.6855 4.52258C8.10055 4.52258 4.68555 7.80958 4.68555 12.2226C4.68555 14.4926 5.58155 16.4946 7.15155 17.8986C7.4368 18.1513 7.66748 18.4595 7.82946 18.8044C7.99143 19.1493 8.0813 19.5237 8.09355 19.9046L8.44955 19.7476ZM12.6855 2.52258C18.3195 2.52258 22.6855 6.64958 22.6855 12.2226C22.6855 17.7956 18.3185 21.9226 12.6855 21.9226C11.7077 21.9251 10.7339 21.7959 9.79055 21.5386C9.61335 21.4899 9.42478 21.5036 9.25655 21.5776L7.27155 22.4536C7.15168 22.5066 7.02063 22.5293 6.88992 22.5197C6.75921 22.5102 6.63285 22.4687 6.52195 22.3989C6.41104 22.329 6.31899 22.233 6.25388 22.1193C6.18877 22.0056 6.1526 21.8776 6.14855 21.7466L6.09455 19.9666C6.09082 19.8583 6.06504 19.7519 6.01879 19.6539C5.97253 19.5559 5.90678 19.4683 5.82555 19.3966C3.88055 17.6566 2.68555 15.1386 2.68555 12.2226C2.68555 6.64958 7.05155 2.52258 12.6855 2.52258ZM6.68055 15.0596L9.61755 10.3996C9.72805 10.2241 9.87373 10.0735 10.0454 9.9572C10.217 9.8409 10.4109 9.76144 10.6149 9.72385C10.8188 9.68627 11.0283 9.69136 11.2301 9.73882C11.4319 9.78628 11.6217 9.87507 11.7875 9.99958L14.1235 11.7496C14.2277 11.8282 14.3546 11.8707 14.485 11.8707C14.6155 11.8707 14.7424 11.8282 14.8465 11.7496L18.0015 9.35458C18.4225 9.03458 18.9725 9.53858 18.6905 9.98558L15.7535 14.6456C15.643 14.821 15.4974 14.9717 15.3257 15.088C15.1541 15.2043 14.9601 15.2837 14.7562 15.3213C14.5523 15.3589 14.3428 15.3538 14.141 15.3063C13.9392 15.2589 13.7493 15.1701 13.5835 15.0456L11.2475 13.2956C11.1434 13.217 11.0165 13.1745 10.886 13.1745C10.7556 13.1745 10.6287 13.217 10.5245 13.2956L7.36955 15.6926C6.94855 16.0116 6.39855 15.5076 6.68055 15.0596Z" fill="#018343"/>
</g>
</svg>
