<svg width="36" height="36" viewBox="0 0 36 36" fill="none" xmlns="http://www.w3.org/2000/svg">
<g id="img">
<circle id="Ellipse 33" cx="18" cy="18" r="17.5" fill="#F0EEEE" stroke="#686163"/>
<g id="Group">
<path id="Vector" d="M13.1023 21.6666C10.7446 21.6666 8.83337 19.8268 8.83337 17.5571C8.83337 15.2884 10.7446 13.4486 13.1023 13.4486C13.4625 11.8335 14.7468 10.5153 16.471 9.99006C18.1944 9.46573 20.0974 9.81314 21.4614 10.9067C22.8254 11.9976 23.4432 13.6631 23.0839 15.2783H23.9914C25.745 15.2783 27.1667 16.7083 27.1667 18.4738C27.1667 20.2402 25.745 21.6702 23.9905 21.6702H13.1023M18 21.6666V26.2499" stroke="#686163" stroke-width="2" stroke-linecap="round" stroke-linejoin="round"/>
<path id="Vector_2" d="M21.6667 21.6665V25.3332C21.6667 25.5763 21.7632 25.8094 21.9352 25.9814C22.1071 26.1533 22.3402 26.2498 22.5833 26.2498H26.25M14.3333 21.6665V25.3332C14.3333 25.5763 14.2368 25.8094 14.0648 25.9814C13.8929 26.1533 13.6598 26.2498 13.4167 26.2498H9.75" stroke="#686163" stroke-width="2" stroke-linecap="round" stroke-linejoin="round"/>
</g>
</g>
</svg>
