<svg xmlns="http://www.w3.org/2000/svg" width="21" height="20" viewBox="0 0 21 20" fill="none">
  <path d="M12.1667 7.75V10.1667H14.3333C14.5 10.1667 14.5833 10.3333 14.5833 10.5L14.25 12.0833C14.25 12.1667 14.0833 12.25 14 12.25H12.1667V18.3333H9.66667V12.3333H8.25C8.08333 12.3333 8 12.25 8 12.0833V10.5C8 10.3333 8.08333 10.25 8.25 10.25H9.66667V7.5C9.66667 6.08333 10.75 5 12.1667 5H14.4167C14.5833 5 14.6667 5.08333 14.6667 5.25V7.25C14.6667 7.41667 14.5833 7.5 14.4167 7.5H12.4167C12.25 7.5 12.1667 7.58333 12.1667 7.75Z" stroke="#686163" stroke-width="1.5" stroke-miterlimit="10" stroke-linecap="round"/>
  <path d="M13 18.3332H7.99996C3.83329 18.3332 2.16663 16.6665 2.16663 12.4998V7.49984C2.16663 3.33317 3.83329 1.6665 7.99996 1.6665H13C17.1666 1.6665 18.8333 3.33317 18.8333 7.49984V12.4998C18.8333 16.6665 17.1666 18.3332 13 18.3332Z" stroke="#686163" stroke-width="1.5" stroke-linecap="round" stroke-linejoin="round"/>
</svg>