<svg xmlns="http://www.w3.org/2000/svg" width="21" height="20" viewBox="0 0 21 20" fill="none">
  <path d="M7.99996 18.3332H13C17.1666 18.3332 18.8333 16.6665 18.8333 12.4998V7.49984C18.8333 3.33317 17.1666 1.6665 13 1.6665H7.99996C3.83329 1.6665 2.16663 3.33317 2.16663 7.49984V12.4998C2.16663 16.6665 3.83329 18.3332 7.99996 18.3332Z" stroke="#686163" stroke-width="1.5" stroke-linecap="round" stroke-linejoin="round"/>
  <path d="M10.5 12.9168C12.1109 12.9168 13.4167 11.611 13.4167 10.0002C13.4167 8.38933 12.1109 7.0835 10.5 7.0835C8.88921 7.0835 7.58337 8.38933 7.58337 10.0002C7.58337 11.611 8.88921 12.9168 10.5 12.9168Z" stroke="#686163" stroke-width="1.5" stroke-linecap="round" stroke-linejoin="round"/>
  <path d="M15.1967 5.83317H15.2064" stroke="#686163" stroke-width="2" stroke-linecap="round" stroke-linejoin="round"/>
</svg>