<svg xmlns="http://www.w3.org/2000/svg" width="21" height="20" viewBox="0 0 21 20" fill="none">
  <path d="M8.00033 18.3337H13.0003C17.167 18.3337 18.8337 16.667 18.8337 12.5003V7.50033C18.8337 3.33366 17.167 1.66699 13.0003 1.66699H8.00033C3.83366 1.66699 2.16699 3.33366 2.16699 7.50033V12.5003C2.16699 16.667 3.83366 18.3337 8.00033 18.3337Z" stroke="white" stroke-linecap="round" stroke-linejoin="round"/>
  <path d="M10.4997 12.9163C12.1105 12.9163 13.4163 11.6105 13.4163 9.99967C13.4163 8.38884 12.1105 7.08301 10.4997 7.08301C8.88884 7.08301 7.58301 8.38884 7.58301 9.99967C7.58301 11.6105 8.88884 12.9163 10.4997 12.9163Z" stroke="white" stroke-linecap="round" stroke-linejoin="round"/>
  <path d="M15.1971 5.83366H15.2067" stroke="white" stroke-linecap="round" stroke-linejoin="round"/>
</svg>