<svg width="32" height="31" viewBox="0 0 32 31" fill="none" xmlns="http://www.w3.org/2000/svg">
<path d="M24.452 30L21.26 26.85C18.544 29.286 15.226 30.504 11.306 30.504C9.15 30.504 7.246 30.14 5.594 29.412C3.97 28.656 2.71 27.606 1.814 26.262C0.918 24.89 0.47 23.308 0.47 21.516C0.47 19.584 1.016 17.848 2.108 16.308C3.2 14.768 4.81 13.522 6.938 12.57C6.182 11.646 5.636 10.764 5.3 9.924C4.964 9.056 4.796 8.132 4.796 7.152C4.796 5.808 5.146 4.604 5.846 3.54C6.546 2.448 7.54 1.594 8.828 0.977998C10.144 0.361998 11.67 0.0539975 13.406 0.0539975C15.17 0.0539975 16.682 0.389998 17.942 1.062C19.202 1.734 20.14 2.63 20.756 3.75C21.372 4.87 21.638 6.116 21.554 7.488H15.842C15.87 6.564 15.646 5.864 15.17 5.388C14.694 4.884 14.05 4.632 13.238 4.632C12.454 4.632 11.796 4.87 11.264 5.346C10.76 5.794 10.508 6.382 10.508 7.11C10.508 7.81 10.718 8.51 11.138 9.21C11.558 9.882 12.244 10.722 13.196 11.73L20.588 19.038C20.644 18.982 20.686 18.926 20.714 18.87C20.742 18.814 20.77 18.758 20.798 18.702L23.192 14.712H29.324L26.384 19.878C25.824 20.97 25.222 22.006 24.578 22.986L31.676 30H24.452ZM11.474 25.632C13.77 25.632 15.8 24.82 17.564 23.196L10.34 16.056C7.624 17.26 6.266 18.968 6.266 21.18C6.266 22.44 6.742 23.504 7.694 24.372C8.646 25.212 9.906 25.632 11.474 25.632Z" fill="#018343"/>
</svg>
