<svg width="34" height="33" viewBox="0 0 34 33" fill="none" xmlns="http://www.w3.org/2000/svg">
<path d="M23.1875 27.4209L20.5166 24.75L19.0625 26.2041L23.1875 30.3291L31.4375 22.0791L29.9834 20.625L23.1875 27.4209Z" fill="#018343"/>
<path d="M17 18.5625C18.1391 18.5625 19.0625 17.6391 19.0625 16.5C19.0625 15.3609 18.1391 14.4375 17 14.4375C15.8609 14.4375 14.9375 15.3609 14.9375 16.5C14.9375 17.6391 15.8609 18.5625 17 18.5625Z" fill="#018343"/>
<path d="M17 22.6875C15.7762 22.6875 14.5799 22.3246 13.5624 21.6447C12.5449 20.9648 11.7518 19.9985 11.2835 18.8679C10.8152 17.7372 10.6926 16.4931 10.9314 15.2929C11.1701 14.0926 11.7594 12.9901 12.6248 12.1248C13.4901 11.2594 14.5926 10.6701 15.7929 10.4314C16.9931 10.1926 18.2372 10.3152 19.3679 10.7835C20.4985 11.2518 21.4648 12.0449 22.1447 13.0624C22.8246 14.0799 23.1875 15.2762 23.1875 16.5C23.1856 18.1404 22.5331 19.7131 21.3731 20.8731C20.2131 22.0331 18.6404 22.6856 17 22.6875ZM17 12.375C16.1842 12.375 15.3866 12.6169 14.7083 13.0702C14.0299 13.5235 13.5012 14.1677 13.189 14.9214C12.8768 15.6752 12.7951 16.5046 12.9543 17.3047C13.1134 18.1049 13.5063 18.8399 14.0832 19.4168C14.6601 19.9937 15.3951 20.3866 16.1953 20.5457C16.9954 20.7049 17.8248 20.6232 18.5786 20.311C19.3323 19.9988 19.9766 19.4701 20.4298 18.7917C20.8831 18.1134 21.125 17.3159 21.125 16.5C21.1236 15.4064 20.6886 14.358 19.9153 13.5847C19.142 12.8114 18.0936 12.3764 17 12.375Z" fill="#018343"/>
<path d="M29.375 16.5C29.375 14.0525 28.6492 11.6599 27.2894 9.62483C25.9297 7.58977 23.997 6.00363 21.7357 5.067C19.4745 4.13036 16.9863 3.8853 14.5858 4.36279C12.1852 4.84028 9.98023 6.01888 8.24956 7.74956C6.51888 9.48023 5.34028 11.6852 4.86279 14.0858C4.3853 16.4863 4.63036 18.9745 5.567 21.2357C6.50363 23.497 8.08977 25.4297 10.1248 26.7894C12.1599 28.1492 14.5525 28.875 17 28.875V26.8125C14.9604 26.8125 12.9666 26.2077 11.2707 25.0745C9.57481 23.9414 8.25303 22.3308 7.4725 20.4464C6.69197 18.5621 6.48775 16.4886 6.88566 14.4881C7.28357 12.4877 8.26574 10.6502 9.70797 9.20797C11.1502 7.76574 12.9877 6.78357 14.9881 6.38566C16.9886 5.98775 19.0621 6.19197 20.9464 6.9725C22.8308 7.75303 24.4414 9.07481 25.5745 10.7707C26.7077 12.4666 27.3125 14.4604 27.3125 16.5H29.375Z" fill="#018343"/>
</svg>
