<svg width="34" height="33" viewBox="0 0 34 33" fill="none" xmlns="http://www.w3.org/2000/svg">
<g clip-path="url(#clip0_1037_7010)">
<path d="M33.5137 27.5371V30.2871H0.513672V27.5371H6.01367V26.1621C5.285 26.1599 4.58679 25.8695 4.07153 25.3542C3.55628 24.839 3.26585 24.1408 3.26367 23.4121V9.66208C3.26585 8.93341 3.55628 8.2352 4.07153 7.71994C4.58679 7.20469 5.285 6.91426 6.01367 6.91208H8.75817V9.66208H6.01367V23.4121H28.0137V9.66208H25.2582V6.91208H28.0137C28.7423 6.91426 29.4406 7.20469 29.9558 7.71994C30.4711 8.2352 30.7615 8.93341 30.7637 9.66208L30.7499 23.4121C30.751 24.1394 30.4635 24.8374 29.9505 25.353C29.4375 25.8685 28.741 26.1595 28.0137 26.1621V27.5371H33.5137ZM21.1387 19.2706L17.0137 15.1456L12.8887 19.2706H15.6387V22.0343H18.3887V19.2706H21.1387ZM22.5068 8.28296C22.5068 9.37076 22.1842 10.4341 21.5799 11.3386C20.9755 12.2431 20.1166 12.948 19.1116 13.3643C18.1066 13.7806 17.0007 13.8895 15.9338 13.6773C14.8669 13.4651 13.8869 12.9412 13.1177 12.172C12.3485 11.4029 11.8247 10.4229 11.6125 9.35596C11.4003 8.28906 11.5092 7.18319 11.9255 6.1782C12.3417 5.17321 13.0467 4.31422 13.9512 3.70988C14.8556 3.10553 15.919 2.78296 17.0068 2.78296C18.4654 2.78332 19.8641 3.3629 20.8955 4.39427C21.9269 5.42565 22.5064 6.82438 22.5068 8.28296ZM16.4568 12.353V11.583C16.1653 11.5822 15.8859 11.4661 15.6798 11.26C15.4736 11.0538 15.3575 10.7745 15.3568 10.483V9.93296L12.9574 7.53358C12.85 8.082 12.8567 8.64667 12.9772 9.19237C13.0976 9.73808 13.3293 10.2531 13.6576 10.7053C13.986 11.1575 14.404 11.5372 14.8856 11.8207C15.3672 12.1042 15.9021 12.2854 16.4568 12.353ZM20.1115 10.9683C20.539 10.4822 20.845 9.90157 21.0045 9.2742C21.164 8.64683 21.1724 7.99057 21.0291 7.35931C20.8858 6.72805 20.5948 6.13978 20.18 5.64279C19.7652 5.1458 19.2385 4.75427 18.643 4.50033C18.6267 4.77798 18.5053 5.039 18.3036 5.2305C18.1019 5.42199 17.8349 5.52962 17.5568 5.53158H16.4568V6.63158C16.4564 6.77734 16.3984 6.91703 16.2953 7.02009C16.1922 7.12316 16.0526 7.18122 15.9068 7.18158H14.8068V8.28158H18.1068C18.2526 8.28195 18.3922 8.34001 18.4953 8.44308C18.5984 8.54614 18.6564 8.68583 18.6568 8.83158V10.4816H19.2068C19.3861 10.4814 19.5627 10.5258 19.7206 10.6107C19.8785 10.6957 20.0129 10.8186 20.1115 10.9683Z" fill="#018343"/>
</g>
<defs>
<clipPath id="clip0_1037_7010">
<rect width="33" height="33" fill="white" transform="translate(0.5)"/>
</clipPath>
</defs>
</svg>
