<svg width="30" height="30" viewBox="0 0 30 30" fill="none" xmlns="http://www.w3.org/2000/svg">
<g id="iconoir:design-nib-solid">
<g id="Group">
<path id="Vector" d="M4.12748 25.0381L11.8173 17.3483M21.5009 13.9287L19.199 20.8355C19.1621 20.946 19.0992 21.046 19.0154 21.1269C18.9317 21.2079 18.8297 21.2675 18.7181 21.3008L4.60719 25.4961C4.48006 25.5338 4.34501 25.536 4.21674 25.5023C4.08847 25.4687 3.97189 25.4005 3.87969 25.3052C3.78748 25.2098 3.72319 25.0911 3.6938 24.9617C3.66442 24.8324 3.67107 24.6975 3.71302 24.5717L8.29502 10.8281C8.32786 10.7294 8.38155 10.639 8.45243 10.5629C8.52332 10.4868 8.60975 10.4268 8.70586 10.3871L15.2151 7.707C15.3475 7.65235 15.493 7.6381 15.6335 7.66605C15.7739 7.69401 15.9029 7.76292 16.0042 7.86408L21.3257 13.1868C21.4209 13.282 21.4877 13.4018 21.5187 13.5329C21.5496 13.6639 21.5435 13.801 21.5009 13.9287Z" stroke="#018343" stroke-width="1.5" stroke-linecap="round" stroke-linejoin="round"/>
<path id="Vector_2" d="M22.3822 3.98895L25.2387 6.84545C25.4533 7.05082 25.6248 7.297 25.743 7.56954C25.8613 7.84207 25.9239 8.13548 25.9271 8.43254C25.9304 8.7296 25.8743 9.02432 25.7622 9.2994C25.65 9.57449 25.484 9.8244 25.274 10.0345C25.0639 10.2445 24.814 10.4105 24.5389 10.5227C24.2638 10.6348 23.9691 10.6909 23.672 10.6876C23.375 10.6844 23.0816 10.6218 22.809 10.5036C22.5365 10.3853 22.2903 10.2139 22.0849 9.9992L19.2272 7.1427C18.8242 6.72141 18.6021 6.15905 18.6085 5.57604C18.615 4.99303 18.8494 4.43572 19.2617 4.02344C19.674 3.61116 20.2313 3.3767 20.8143 3.37025C21.3973 3.36381 21.9609 3.58589 22.3822 3.98895Z" fill="#018343" stroke="#018343" stroke-width="1.5" stroke-linecap="round" stroke-linejoin="round"/>
<path id="Vector_3" d="M14.3799 14.7842C14.2127 14.6111 14.0127 14.473 13.7916 14.378C13.5704 14.283 13.3326 14.233 13.0919 14.2309C12.8513 14.2288 12.6126 14.2747 12.3898 14.3658C12.1671 14.4569 11.9647 14.5915 11.7945 14.7617C11.6244 14.9319 11.4898 15.1343 11.3986 15.357C11.3075 15.5798 11.2616 15.8184 11.2637 16.0591C11.2658 16.2997 11.3158 16.5376 11.4108 16.7587C11.5058 16.9798 11.6439 17.1798 11.817 17.347C12.1588 17.6772 12.6167 17.8599 13.0919 17.8558C13.5672 17.8516 14.0218 17.661 14.3578 17.325C14.6939 16.9889 14.8845 16.5343 14.8886 16.0591C14.8927 15.5839 14.71 15.126 14.3799 14.7842Z" stroke="#018343" stroke-width="1.5" stroke-linecap="round" stroke-linejoin="round"/>
</g>
</g>
</svg>
