<svg width="34" height="33" viewBox="0 0 34 33" fill="none" xmlns="http://www.w3.org/2000/svg">
<path d="M14.9375 4.125H6.6875C6.14049 4.125 5.61589 4.3423 5.22909 4.72909C4.8423 5.11589 4.625 5.64049 4.625 6.1875V21.3125C4.625 21.8595 4.8423 22.3841 5.22909 22.7709C5.61589 23.1577 6.14049 23.375 6.6875 23.375H27.3125C27.8595 23.375 28.3841 23.1577 28.7709 22.7709C29.1577 22.3841 29.375 21.8595 29.375 21.3125V14.4375M17 23.375V28.875" stroke="#018343" stroke-width="2" stroke-linecap="round" stroke-linejoin="round"/>
<path d="M22.5 4.125L19.75 6.875L22.5 9.625M26.625 4.125L29.375 6.875L26.625 9.625M10.125 28.875H23.875" stroke="#018343" stroke-width="2" stroke-linecap="round" stroke-linejoin="round"/>
</svg>
