<svg width="34" height="33" viewBox="0 0 34 33" fill="none" xmlns="http://www.w3.org/2000/svg">
<path d="M7.52591 2.4812L6.07391 3.93114L8.23438 6.09058L9.68431 4.64064L7.52591 2.4812ZM26.4751 2.4812L24.3147 4.64064L25.7656 6.09058L27.9251 3.93217L26.4751 2.4812ZM17 3.1247C16.6597 3.12883 16.3153 3.14842 15.9688 3.1907C15.9584 3.1907 15.9481 3.18864 15.9378 3.1907C11.7551 3.67023 8.42619 7.04964 7.84766 11.2138C7.38566 14.5654 8.76753 17.6045 11.0703 19.5618C12.0123 20.3657 12.6494 21.4688 12.875 22.6865V28.874H15.2262C15.5851 29.4896 16.24 29.9052 17 29.9052C17.76 29.9052 18.4149 29.4896 18.7737 28.874H21.125V24.749H21.2219V23.5239C21.2219 22.012 22.0077 20.4879 23.2844 19.303C24.9922 17.5931 26.2812 15.1645 26.2812 12.375C26.2812 7.28064 22.0882 3.07726 17 3.1247ZM17 5.1872C20.9858 5.13151 24.2188 8.39439 24.2188 12.375C24.2188 14.5345 23.2184 16.4361 21.8335 17.82L21.8665 17.853C20.4901 19.1222 19.6002 20.8321 19.3502 22.6875H14.8395C14.6127 20.92 13.8547 19.2091 12.4223 17.9819C10.6001 16.435 9.51416 14.1044 9.87716 11.4727C10.3278 8.22423 12.9637 5.61208 16.1936 5.25423C16.4602 5.21705 16.7288 5.19502 16.9979 5.18823L17 5.1872ZM2.5625 12.375V14.4375H5.65625V12.375H2.5625ZM28.3438 12.375V14.4375H31.4375V12.375H28.3438ZM8.23438 20.722L6.07494 22.8804L7.52591 24.3313L9.68328 22.1719L8.23438 20.722ZM25.7656 20.722L24.3157 22.1719L26.4741 24.3313L27.9251 22.8804L25.7656 20.722ZM14.9375 24.75H19.0625V26.8125H14.9375V24.75Z" fill="#018343"/>
</svg>
