<svg width="34" height="33" viewBox="0 0 34 33" fill="none" xmlns="http://www.w3.org/2000/svg">
<g clip-path="url(#clip0_1037_6997)">
<path d="M7.36115 17.6852C7.61347 19.5039 8.37355 21.2145 9.55412 22.6208C10.7347 24.027 12.2879 25.0718 14.0354 25.6352C15.7829 26.1986 17.6538 26.2578 19.4335 25.8059C21.2131 25.3541 22.8292 24.4095 24.0963 23.0807C23.976 22.8029 23.9035 22.5068 23.8818 22.2049L23.8749 22L23.8818 21.7937C23.9228 21.2469 24.1264 20.7249 24.4664 20.2946C24.8064 19.8644 25.2672 19.5456 25.7897 19.3793C26.3122 19.2129 26.8725 19.2065 27.3987 19.361C27.9248 19.5154 28.3928 19.8237 28.7424 20.2461C29.0921 20.6685 29.3075 21.1858 29.361 21.7315C29.4144 22.2772 29.3035 22.8265 29.0425 23.3087C28.7815 23.791 28.3822 24.1841 27.8961 24.4378C27.4099 24.6914 26.859 24.7939 26.3142 24.7321C24.7175 26.4992 22.6496 27.7739 20.3535 28.4063C18.0573 29.0388 15.6284 29.0027 13.3521 28.3024C11.0758 27.602 9.04664 26.2665 7.50313 24.4528C5.95963 22.639 4.96587 20.4224 4.63865 18.0634C4.60069 17.7082 4.70242 17.3522 4.92229 17.0708C5.14217 16.7893 5.46294 16.6044 5.81671 16.5553C6.17048 16.5062 6.52949 16.5966 6.81774 16.8075C7.106 17.0184 7.30089 17.3332 7.36115 17.6852Z" fill="#018343"/>
<path d="M17 11C18.0761 11 19.1285 11.3157 20.027 11.9079C20.9254 12.5001 21.6304 13.3429 22.0546 14.3319C22.4788 15.3208 22.6036 16.4125 22.4135 17.4716C22.2234 18.5308 21.7268 19.5109 20.9851 20.2906C20.2435 21.0703 19.2894 21.6153 18.2411 21.8581C17.1928 22.101 16.0962 22.0309 15.0873 21.6567C14.0784 21.2825 13.2014 20.6205 12.565 19.7528C11.9286 18.8851 11.5607 17.8497 11.5069 16.775L11.5 16.5L11.5069 16.225C11.5774 14.8157 12.187 13.4874 13.2094 12.5149C14.2318 11.5423 15.5889 11 17 11Z" fill="#018343"/>
<path d="M18.5703 4.2487C21.2919 4.60012 23.8226 5.83655 25.7725 7.76757C27.7224 9.69859 28.9834 12.2171 29.3612 14.9352C29.4002 15.2908 29.2991 15.6476 29.0794 15.9298C28.8596 16.2121 28.5386 16.3976 28.1843 16.4469C27.83 16.4963 27.4704 16.4057 27.1819 16.1943C26.8933 15.9829 26.6985 15.6674 26.6388 15.3147C26.3438 13.1936 25.3596 11.2283 23.8378 9.72156C22.3159 8.21487 20.3409 7.25038 18.2169 6.9767C16.6975 6.7789 15.1529 6.94173 13.7081 7.45198C12.2633 7.96223 10.9591 8.80557 9.90088 9.9137C10.0592 10.2808 10.1357 10.678 10.1248 11.0777C10.114 11.4773 10.0161 11.8698 9.83807 12.2278C9.66001 12.5857 9.40605 12.9006 9.09387 13.1503C8.78169 13.4001 8.41881 13.5788 8.0305 13.674C7.64219 13.7692 7.2378 13.7785 6.8455 13.7014C6.45321 13.6243 6.08244 13.4626 5.75903 13.2276C5.43563 12.9925 5.16737 12.6898 4.97294 12.3404C4.77851 11.9911 4.66258 11.6036 4.63325 11.2048L4.625 11L4.63188 10.7937C4.65953 10.4252 4.76115 10.0661 4.93068 9.73782C5.1002 9.40951 5.33415 9.11873 5.61855 8.88284C5.90295 8.64696 6.23197 8.4708 6.58596 8.36489C6.93995 8.25899 7.31166 8.22551 7.67888 8.26645C9.03421 6.76612 10.7331 5.61682 12.6301 4.91706C14.527 4.2173 16.5653 3.98796 18.5703 4.2487Z" fill="#018343"/>
</g>
<defs>
<clipPath id="clip0_1037_6997">
<rect width="33" height="33" fill="white" transform="translate(0.5)"/>
</clipPath>
</defs>
</svg>
