<svg width="34" height="33" viewBox="0 0 34 33" fill="none" xmlns="http://www.w3.org/2000/svg">
<g clip-path="url(#clip0_1037_6988)">
<path d="M9.29961 31.8998H24.6996M1.59961 5.4998V23.0998C1.59961 23.6833 1.83139 24.2429 2.24397 24.6554C2.65655 25.068 3.21613 25.2998 3.79961 25.2998H30.1996C30.7831 25.2998 31.3427 25.068 31.7552 24.6554C32.1678 24.2429 32.3996 23.6833 32.3996 23.0998V5.4998C32.3996 4.91633 32.1678 4.35675 31.7552 3.94417C31.3427 3.53159 30.7831 3.2998 30.1996 3.2998H3.79961C3.21613 3.2998 2.65655 3.53159 2.24397 3.94417C1.83139 4.35675 1.59961 4.91633 1.59961 5.4998Z" stroke="#018343" stroke-width="2"/>
</g>
<defs>
<clipPath id="clip0_1037_6988">
<rect width="33" height="33" fill="white" transform="translate(0.5)"/>
</clipPath>
</defs>
</svg>
