<svg width="20" height="21" viewBox="0 0 20 21" fill="none" xmlns="http://www.w3.org/2000/svg">
<g clip-path="url(#clip0_1038_4261)">
<path d="M16.0639 15.5336L16.0639 6.10156C16.0601 5.92599 16.0216 5.7529 15.9507 5.59223C15.8154 5.26826 15.5579 5.0107 15.2339 4.8754C15.0732 4.80451 14.9001 4.76605 14.7246 4.76222L5.29256 4.76222C5.11667 4.76222 4.94251 4.79686 4.78001 4.86417C4.61752 4.93148 4.46987 5.03013 4.3455 5.1545C4.09432 5.40568 3.95321 5.74635 3.95321 6.10156C3.95321 6.45678 4.09432 6.79745 4.3455 7.04862C4.59667 7.2998 4.93734 7.44091 5.29256 7.44091L11.5083 7.43148L4.34936 14.5904C4.0992 14.8405 3.95867 15.1798 3.95867 15.5336C3.95867 15.8873 4.0992 16.2266 4.34936 16.4768C4.59951 16.7269 4.93879 16.8675 5.29256 16.8675C5.64633 16.8675 5.98561 16.7269 6.23576 16.4768L13.3947 9.31788L13.3852 15.5336C13.3845 15.7097 13.4187 15.8841 13.4857 16.047C13.5528 16.2098 13.6514 16.3577 13.7759 16.4822C13.9004 16.6068 14.0483 16.7054 14.2112 16.7724C14.374 16.8395 14.5485 16.8736 14.7246 16.8729C14.9007 16.8736 15.0751 16.8395 15.238 16.7724C15.4008 16.7054 15.5487 16.6068 15.6732 16.4822C15.7978 16.3577 15.8964 16.2098 15.9634 16.047C16.0305 15.8841 16.0646 15.7097 16.0639 15.5336Z" fill="#FFFFFF"/>
</g>
<defs>
<clipPath id="clip0_1038_4261">
<rect width="20" height="20" fill="white" transform="translate(0 0.5)"/>
</clipPath>
</defs>
</svg>
