<svg width="21" height="28" viewBox="0 0 21 28" fill="none" xmlns="http://www.w3.org/2000/svg">
<path id="Vector" d="M19.0084 12.8004C18.6634 12.3504 18.2434 11.9604 17.8534 11.5704C16.8484 10.6704 15.7084 10.0254 14.7484 9.08039C12.5134 6.89039 12.0184 3.27539 13.4434 0.500385C12.0184 0.845385 10.7734 1.62539 9.70839 2.48039C5.82339 5.60039 4.29338 11.1054 6.12338 15.8304C6.18338 15.9804 6.24338 16.1304 6.24338 16.3254C6.24338 16.6554 6.01839 16.9554 5.71839 17.0754C5.37339 17.2254 5.01339 17.1354 4.72839 16.8954C4.64274 16.8246 4.57146 16.738 4.51838 16.6404C2.82339 14.4954 2.55338 11.4204 3.69338 8.96039C1.18838 11.0004 -0.176615 14.4504 0.0183851 17.7054C0.108385 18.4554 0.198385 19.2054 0.453385 19.9554C0.663385 20.8554 1.06839 21.7554 1.51839 22.5504C3.13839 25.1454 5.94339 27.0054 8.95839 27.3804C12.1684 27.7854 15.6034 27.2004 18.0634 24.9804C20.8084 22.4904 21.7684 18.5004 20.3584 15.0804L20.1634 14.6904C19.8484 14.0004 19.0084 12.8004 19.0084 12.8004ZM14.2684 22.2504C13.8484 22.6104 13.1584 23.0004 12.6184 23.1504C10.9384 23.7504 9.25838 22.9104 8.26838 21.9204C10.0534 21.5004 11.1184 20.1804 11.4334 18.8454C11.6884 17.6454 11.2084 16.6554 11.0134 15.5004C10.8334 14.3904 10.8634 13.4454 11.2684 12.4104C11.5534 12.9804 11.8534 13.5504 12.2134 14.0004C13.3684 15.5004 15.1834 16.1604 15.5734 18.2004C15.6334 18.4104 15.6634 18.6204 15.6634 18.8454C15.7084 20.0754 15.1684 21.4254 14.2684 22.2504Z" fill="#D72025"/>
</svg>
