<svg width="14" height="13" viewBox="0 0 14 13" fill="none" xmlns="http://www.w3.org/2000/svg">
<g id="Icon &#226;&#128;&#162; Chevron Left">
<path id="Chevron Left" d="M7.81103 10.174L4.64535 7.07745C4.53548 6.96759 4.47852 6.84551 4.47852 6.7031C4.47852 6.56068 4.53548 6.43048 4.64941 6.32468L7.8151 3.23223C7.90462 3.14272 8.01855 3.09389 8.14876 3.09389C8.42139 3.09389 8.63298 3.30548 8.63298 3.57403C8.63298 3.70424 8.58008 3.83038 8.48649 3.92397L5.63818 6.69903L8.48649 9.48223C8.58008 9.57582 8.63298 9.69789 8.63298 9.83217C8.63298 10.1007 8.42139 10.3123 8.14876 10.3123C8.01855 10.3123 7.90462 10.2635 7.81103 10.174Z" fill="#717171"/>
</g>
</svg>
