<svg width="13" height="13" viewBox="0 0 13 13" fill="none" xmlns="http://www.w3.org/2000/svg">
<g id="Icon &#226;&#128;&#162; Shield">
<path id="Shield" d="M6.7513 11.1668C6.82887 11.1668 6.94523 11.1407 7.05297 11.0798C9.53524 9.71793 10.3971 9.08704 10.3971 7.5033V4.21833C10.3971 3.69622 10.1946 3.50913 9.76364 3.32204C9.28529 3.11755 7.67784 2.55192 7.20811 2.39094C7.0659 2.34308 6.89783 2.31262 6.7513 2.31262C6.60478 2.31262 6.43671 2.35178 6.2945 2.39094C5.82476 2.52582 4.21732 3.1219 3.73896 3.32204C3.30802 3.50478 3.10547 3.69622 3.10547 4.21833V7.5033C3.10547 9.08704 3.97168 9.70922 6.44533 11.0798C6.55737 11.1407 6.67373 11.1668 6.7513 11.1668ZM6.98401 3.19151C7.54856 3.41776 8.77676 3.85721 9.42319 4.08781C9.54386 4.13567 9.57402 4.20093 9.57402 4.35756V7.34231C9.57402 8.61714 8.94053 8.96086 6.99694 10.1443C6.87628 10.2183 6.81594 10.2444 6.75561 10.2444V3.14365C6.81594 3.14365 6.88059 3.1567 6.98401 3.19151Z" fill="#717171"/>
</g>
</svg>
