<svg width="14" height="13" viewBox="0 0 14 13" fill="none" xmlns="http://www.w3.org/2000/svg">
<g id="Icon &#226;&#128;&#162; Share">
<path id="Share" d="M6.92131 7.71491C7.14144 7.71491 7.32272 7.53349 7.32272 7.31752V2.97217L7.29251 2.33289L7.5558 2.64821L8.16009 3.29181C8.22915 3.36956 8.32842 3.40843 8.4277 3.40843C8.62625 3.40843 8.79027 3.26589 8.79027 3.06288C8.79027 2.95489 8.7471 2.87714 8.67373 2.80371L7.22777 1.40853C7.12417 1.30486 7.0249 1.27031 6.92131 1.27031C6.8134 1.27031 6.71844 1.30486 6.61485 1.40853L5.16458 2.80371C5.0912 2.87714 5.04803 2.95489 5.04803 3.06288C5.04803 3.26589 5.20774 3.40843 5.40629 3.40843C5.50556 3.40843 5.60915 3.36956 5.67821 3.29181L6.2825 2.64821L6.55011 2.32857L6.51558 2.97217V7.31752C6.51558 7.53349 6.69686 7.71491 6.92131 7.71491ZM4.4308 11.1661H9.40318C10.3398 11.1661 10.8232 10.6824 10.8232 9.75801V5.512C10.8232 4.58764 10.3398 4.10386 9.40318 4.10386H8.23778V4.96343H9.34707C9.73985 4.96343 9.9643 5.17076 9.9643 5.58543V9.68025C9.9643 10.0949 9.73985 10.3023 9.34707 10.3023H4.48692C4.08982 10.3023 3.86969 10.0949 3.86969 9.68025V5.58543C3.86969 5.17076 4.08982 4.96343 4.48692 4.96343H5.60915V4.10386H4.4308C3.49848 4.10386 3.01074 4.58332 3.01074 5.512V9.75801C3.01074 10.6824 3.49848 11.1661 4.4308 11.1661Z" fill="#717171"/>
</g>
</svg>
