<svg width="8" height="9" viewBox="0 0 8 9" fill="none" xmlns="http://www.w3.org/2000/svg">
<g id="Icon &#226;&#128;&#162; Clockwise Arrow">
<path id="Clockwise Arrow" d="M3.93274 4.33945C4.02124 4.33945 4.09143 4.31198 4.14636 4.254L5.39758 2.99362C5.46472 2.92648 5.49524 2.85324 5.49524 2.76779C5.49524 2.68539 5.46167 2.60605 5.39758 2.54501L4.14636 1.27243C4.09143 1.2114 4.02124 1.18088 3.93274 1.18088C3.76794 1.18088 3.63672 1.31821 3.63672 1.48605C3.63672 1.56845 3.66724 1.63559 3.71912 1.69357L4.44849 2.40768C4.30505 2.38632 4.15857 2.37411 4.01208 2.37411C2.50146 2.37411 1.29297 3.58261 1.29297 5.09628C1.29297 6.60995 2.51062 7.82761 4.02124 7.82761C5.53491 7.82761 6.74951 6.60995 6.74951 5.09628C6.74951 4.91318 6.62134 4.78195 6.43823 4.78195C6.26123 4.78195 6.14221 4.91318 6.14221 5.09628C6.14221 6.27426 5.19922 7.22031 4.02124 7.22031C2.84631 7.22031 1.90027 6.27426 1.90027 5.09628C1.90027 3.90915 2.83716 2.96921 4.01208 2.96921C4.21045 2.96921 4.39355 2.98447 4.5553 3.01193L3.72217 3.83591C3.66724 3.89084 3.63672 3.95798 3.63672 4.04037C3.63672 4.20822 3.76794 4.33945 3.93274 4.33945Z" fill="#787878"/>
</g>
</svg>
