<svg width="13" height="13" viewBox="0 0 13 13" fill="none" xmlns="http://www.w3.org/2000/svg">
<g id="Icon &#226;&#128;&#162; Tab Overview">
<path id="Tab Overview" d="M3.15021 9.10142H3.88432V9.75348C3.88432 10.6776 4.37228 11.1612 5.30503 11.1612H9.68378C10.6165 11.1612 11.1045 10.6776 11.1045 9.75348V5.34451C11.1045 4.42039 10.6165 3.93675 9.68378 3.93675H8.94967V3.289C8.94967 2.36489 8.4617 1.88124 7.52895 1.88124H3.15021C2.21314 1.88124 1.72949 2.36489 1.72949 3.289V7.69365C1.72949 8.62209 2.21314 9.10142 3.15021 9.10142ZM3.20635 8.24208C2.80906 8.24208 2.58883 8.0348 2.58883 7.61593V3.36673C2.58883 2.94786 2.80906 2.7449 3.20635 2.7449H7.47281C7.86578 2.7449 8.09033 2.94786 8.09033 3.36673V3.93675H5.30503C4.37228 3.93675 3.88432 4.42039 3.88432 5.34451V8.24208H3.20635ZM5.36117 10.2976C4.96389 10.2976 4.74797 10.0903 4.74797 9.67575V5.42224C4.74797 5.00768 4.96389 4.8004 5.36117 4.8004H9.62764C10.0249 4.8004 10.2452 5.00768 10.2452 5.42224V9.67575C10.2452 10.0903 10.0249 10.2976 9.62764 10.2976H5.36117Z" fill="#717171"/>
</g>
</svg>
