<svg width="14" height="13" viewBox="0 0 14 13" fill="none" xmlns="http://www.w3.org/2000/svg">
<g id="Icon &#226;&#128;&#162; Chevron Right">
<path id="Chevron Right" d="M5.45296 10.3123C5.58724 10.3123 5.6971 10.2635 5.79069 10.174L8.95638 7.08152C9.06624 6.96759 9.12321 6.84958 9.12321 6.7031C9.12321 6.56068 9.07031 6.43454 8.95638 6.32875L5.79069 3.23223C5.6971 3.14272 5.58724 3.09389 5.45296 3.09389C5.18034 3.09389 4.96875 3.30548 4.96875 3.57403C4.96875 3.70424 5.02572 3.83038 5.11523 3.92397L7.96761 6.70717L5.11523 9.48223C5.02165 9.57989 4.96875 9.69789 4.96875 9.83217C4.96875 10.1007 5.18034 10.3123 5.45296 10.3123Z" fill="#BDBCBC"/>
</g>
</svg>
