<svg width="14" height="13" viewBox="0 0 14 13" fill="none" xmlns="http://www.w3.org/2000/svg">
<g id="Icon &#226;&#128;&#162; New Tab">
<path id="New Tab" d="M7.14681 10.1244C7.42123 10.1244 7.64337 9.90158 7.64337 9.64881V6.96692H10.3004C10.5661 6.96692 10.7926 6.74842 10.7926 6.47852C10.7926 6.2129 10.5661 5.99012 10.3004 5.99012H7.64337V3.30823C7.64337 3.05118 7.42123 2.83269 7.14681 2.83269C6.87675 2.83269 6.65024 3.05118 6.65024 3.30823V5.99012H3.99319C3.73619 5.99012 3.50098 6.2129 3.50098 6.47852C3.50098 6.74842 3.73619 6.96692 3.99319 6.96692H6.65024V9.64881C6.65024 9.90158 6.87675 10.1244 7.14681 10.1244Z" fill="#717171"/>
</g>
</svg>
