<svg width="13" height="13" viewBox="0 0 13 13" fill="none" xmlns="http://www.w3.org/2000/svg">
<g id="Icon &#226;&#128;&#162; Sidebar">
<path id="Sidebar" d="M2.46339 10.9131H9.8606C10.7988 10.9131 11.2873 10.4289 11.2873 9.5037V4.24221C11.2873 3.31702 10.7988 2.83281 9.8606 2.83281H2.46339C1.52955 2.83281 1.04102 3.3127 1.04102 4.24221V9.5037C1.04102 10.4289 1.52955 10.9131 2.46339 10.9131ZM2.51959 10.0528C2.12185 10.0528 1.90136 9.84524 1.90136 9.42588V4.32003C1.90136 3.90067 2.12185 3.69315 2.51959 3.69315H4.49103V10.0528H2.51959ZM9.80439 3.69315C10.2021 3.69315 10.4226 3.90067 10.4226 4.32003V9.42588C10.4226 9.84524 10.2021 10.0528 9.80439 10.0528H5.30814V3.69315H9.80439ZM3.64366 5.27549C3.7993 5.27549 3.929 5.14146 3.929 4.99447C3.929 4.84748 3.7993 4.71778 3.64366 4.71778H2.75738C2.60174 4.71778 2.47204 4.84748 2.47204 4.99447C2.47204 5.14146 2.60174 5.27549 2.75738 5.27549H3.64366ZM3.64366 6.43846C3.7993 6.43846 3.929 6.30876 3.929 6.15745C3.929 6.01045 3.7993 5.88075 3.64366 5.88075H2.75738C2.60174 5.88075 2.47204 6.01045 2.47204 6.15745C2.47204 6.30876 2.60174 6.43846 2.75738 6.43846H3.64366ZM3.64366 7.59711C3.7993 7.59711 3.929 7.47174 3.929 7.32042C3.929 7.17343 3.7993 7.04805 3.64366 7.04805H2.75738C2.60174 7.04805 2.47204 7.17343 2.47204 7.32042C2.47204 7.47174 2.60174 7.59711 2.75738 7.59711H3.64366Z" fill="#717171"/>
</g>
</svg>
